<mxfile host="app.diagrams.net" modified="2023-11-14T13:40:25.127Z" agent="Mozilla/5.0 (Windows NT 10.0; Win64; x64) AppleWebKit/537.36 (KHTML, like Gecko) Chrome/117.0.0.0 Safari/537.36" version="22.1.0" etag="1JzzDotTjqgg-Zudh1Jl" type="github">
  <diagram name="Seite-1" id="OS6p-SzeHTxY_aCNC5uL">
    <mxGraphModel>
      <root>
        <mxCell id="0" />
        <mxCell id="1" parent="0" />
      </root>
    </mxGraphModel>
  </diagram>
</mxfile>
